<svg xmlns="http://www.w3.org/2000/svg" viewBox="0 0 100 100">
  <rect width="100" height="100" fill="#ffffff"/>
  <g fill="#26439B">
    <rect x="55" y="20" width="7" height="28" rx="2"/>
    <rect x="53" y="17" width="11" height="5" rx="2"/>
    <path d="M 50 44 L 84 44 C 87 44, 88 46, 88 49 L 88 62 L 50 62 Z"/>
    <rect x="30" y="30" width="5" height="18" rx="2" transform="rotate(-16 32 39)"/>
    <path d="M 20 46 L 52 46 L 52 66 L 20 66 C 17 66, 16 64, 16 61 L 16 51 C 16 48, 17 46, 20 46 Z"/>
    <rect x="14" y="62" width="76" height="8" rx="3"/>
    <path d="M 22 30 L 46 30 L 46 34 L 22 34 Z"/>
    <rect x="24" y="30" width="4" height="18" rx="1.5"/>
    <rect x="41" y="30" width="4" height="18" rx="1.5"/>
    <circle cx="33" cy="72" r="21"/>
    <circle cx="76" cy="78" r="14"/>
  </g>
  <circle cx="33" cy="72" r="12" fill="#ffffff"/>
  <circle cx="33" cy="72" r="5.5" fill="#26439B"/>
  <circle cx="76" cy="78" r="7.5" fill="#ffffff"/>
  <circle cx="76" cy="78" r="3.4" fill="#26439B"/>
  <g stroke="#ffffff" stroke-width="2.6" stroke-linecap="round">
    <path d="M 33 53 L 33 58"/><path d="M 47 61 L 43 64"/><path d="M 52 72 L 47 72"/>
    <path d="M 47 83 L 43 80"/><path d="M 33 91 L 33 86"/><path d="M 19 83 L 23 80"/>
    <path d="M 14 72 L 19 72"/><path d="M 19 61 L 23 64"/>
  </g>
</svg>
